<svg xmlns="http://www.w3.org/2000/svg" xmlns:xlink="http://www.w3.org/1999/xlink" width="500" zoomAndPan="magnify" viewBox="0 0 375 374.999991" height="500" preserveAspectRatio="xMidYMid meet" version="1.0"><defs><g/><clipPath id="c6421fe890"><path d="M 112.5 126.410156 L 262.5 126.410156 L 262.5 187.160156 L 112.5 187.160156 Z M 112.5 126.410156 " clip-rule="nonzero"/></clipPath><clipPath id="f8946d1e30"><path d="M 212.089844 146.125 L 203.890625 153.664062 L 235.8125 182.550781 L 231.324219 187.507812 L 198.949219 158.207031 L 188.636719 167.691406 L 205.054688 182.550781 L 200.566406 187.507812 L 176.945312 166.132812 L 153.722656 187.492188 L 149.195312 182.566406 L 176.910156 157.082031 L 183.65625 163.1875 L 193.96875 153.703125 L 173.8125 135.460938 L 117.242188 187.492188 L 112.714844 182.566406 L 173.777344 126.410156 L 198.910156 149.15625 L 212.050781 137.070312 L 262.292969 182.542969 L 257.808594 187.503906 Z M 212.089844 146.125 " clip-rule="nonzero"/></clipPath><linearGradient x1="-0.0000108916" gradientTransform="matrix(0.339388, 0, 0, 0.339388, 112.715845, 126.409087)" y1="90.014" x2="440.730971" gradientUnits="userSpaceOnUse" y2="90.014" id="4547e2dad2"><stop stop-opacity="1" stop-color="rgb(9.799194%, 88.62915%, 0%)" offset="0"/><stop stop-opacity="1" stop-color="rgb(9.925842%, 88.615417%, 0.389099%)" offset="0.00390625"/><stop stop-opacity="1" stop-color="rgb(10.054016%, 88.601685%, 0.779724%)" offset="0.0078125"/><stop stop-opacity="1" stop-color="rgb(10.180664%, 88.587952%, 1.170349%)" offset="0.0117187"/><stop stop-opacity="1" stop-color="rgb(10.307312%, 88.574219%, 1.560974%)" offset="0.015625"/><stop stop-opacity="1" stop-color="rgb(10.43396%, 88.560486%, 1.951599%)" offset="0.0195312"/><stop stop-opacity="1" stop-color="rgb(10.562134%, 88.546753%, 2.342224%)" offset="0.0234375"/><stop stop-opacity="1" stop-color="rgb(10.688782%, 88.53302%, 2.732849%)" offset="0.0273438"/><stop stop-opacity="1" stop-color="rgb(10.816956%, 88.519287%, 3.123474%)" offset="0.03125"/><stop stop-opacity="1" stop-color="rgb(10.943604%, 88.505554%, 3.514099%)" offset="0.0351562"/><stop stop-opacity="1" stop-color="rgb(11.070251%, 88.491821%, 3.904724%)" offset="0.0390625"/><stop stop-opacity="1" stop-color="rgb(11.196899%, 88.478088%, 4.295349%)" offset="0.0429687"/><stop stop-opacity="1" stop-color="rgb(11.325073%, 88.464355%, 4.685974%)" offset="0.046875"/><stop stop-opacity="1" stop-color="rgb(11.451721%, 88.450623%, 5.076599%)" offset="0.0507812"/><stop stop-opacity="1" stop-color="rgb(11.579895%, 88.43689%, 5.467224%)" offset="0.0546875"/><stop stop-opacity="1" stop-color="rgb(11.706543%, 88.421631%, 5.857849%)" offset="0.0585937"/><stop stop-opacity="1" stop-color="rgb(11.833191%, 88.407898%, 6.248474%)" offset="0.0625"/><stop stop-opacity="1" stop-color="rgb(11.959839%, 88.394165%, 6.639099%)" offset="0.0664062"/><stop stop-opacity="1" stop-color="rgb(12.088013%, 88.380432%, 7.029724%)" offset="0.0703125"/><stop stop-opacity="1" stop-color="rgb(12.214661%, 88.366699%, 7.420349%)" offset="0.0742188"/><stop stop-opacity="1" stop-color="rgb(12.342834%, 88.352966%, 7.810974%)" offset="0.078125"/><stop stop-opacity="1" stop-color="rgb(12.469482%, 88.339233%, 8.201599%)" offset="0.0820312"/><stop stop-opacity="1" stop-color="rgb(12.59613%, 88.3255%, 8.592224%)" offset="0.0859375"/><stop stop-opacity="1" stop-color="rgb(12.722778%, 88.311768%, 8.982849%)" offset="0.0898437"/><stop stop-opacity="1" stop-color="rgb(12.850952%, 88.298035%, 9.373474%)" offset="0.09375"/><stop stop-opacity="1" stop-color="rgb(12.9776%, 88.284302%, 9.764099%)" offset="0.0976562"/><stop stop-opacity="1" stop-color="rgb(13.105774%, 88.270569%, 10.154724%)" offset="0.101562"/><stop stop-opacity="1" stop-color="rgb(13.232422%, 88.256836%, 10.545349%)" offset="0.105469"/><stop stop-opacity="1" stop-color="rgb(13.35907%, 88.243103%, 10.935974%)" offset="0.109375"/><stop stop-opacity="1" stop-color="rgb(13.485718%, 88.22937%, 11.326599%)" offset="0.113281"/><stop stop-opacity="1" stop-color="rgb(13.613892%, 88.215637%, 11.717224%)" offset="0.117187"/><stop stop-opacity="1" stop-color="rgb(13.74054%, 88.201904%, 12.107849%)" offset="0.121094"/><stop stop-opacity="1" stop-color="rgb(13.868713%, 88.188171%, 12.498474%)" offset="0.125"/><stop stop-opacity="1" stop-color="rgb(13.995361%, 88.174438%, 12.889099%)" offset="0.128906"/><stop stop-opacity="1" stop-color="rgb(14.122009%, 88.160706%, 13.279724%)" offset="0.132812"/><stop stop-opacity="1" stop-color="rgb(14.248657%, 88.146973%, 13.670349%)" offset="0.136719"/><stop stop-opacity="1" stop-color="rgb(14.376831%, 88.13324%, 14.060974%)" offset="0.140625"/><stop stop-opacity="1" stop-color="rgb(14.503479%, 88.119507%, 14.451599%)" offset="0.144531"/><stop stop-opacity="1" stop-color="rgb(14.630127%, 88.105774%, 14.842224%)" offset="0.148437"/><stop stop-opacity="1" stop-color="rgb(14.756775%, 88.092041%, 15.232849%)" offset="0.152344"/><stop stop-opacity="1" stop-color="rgb(14.884949%, 88.078308%, 15.623474%)" offset="0.15625"/><stop stop-opacity="1" stop-color="rgb(15.011597%, 88.064575%, 16.014099%)" offset="0.160156"/><stop stop-opacity="1" stop-color="rgb(15.139771%, 88.050842%, 16.404724%)" offset="0.164062"/><stop stop-opacity="1" stop-color="rgb(15.266418%, 88.035583%, 16.795349%)" offset="0.167969"/><stop stop-opacity="1" stop-color="rgb(15.393066%, 88.021851%, 17.185974%)" offset="0.171875"/><stop stop-opacity="1" stop-color="rgb(15.519714%, 88.008118%, 17.576599%)" offset="0.175781"/><stop stop-opacity="1" stop-color="rgb(15.647888%, 87.994385%, 17.967224%)" offset="0.179687"/><stop stop-opacity="1" stop-color="rgb(15.774536%, 87.980652%, 18.357849%)" offset="0.183594"/><stop stop-opacity="1" stop-color="rgb(15.90271%, 87.966919%, 18.748474%)" offset="0.1875"/><stop stop-opacity="1" stop-color="rgb(16.029358%, 87.953186%, 19.139099%)" offset="0.191406"/><stop stop-opacity="1" stop-color="rgb(16.156006%, 87.939453%, 19.529724%)" offset="0.195312"/><stop stop-opacity="1" stop-color="rgb(16.282654%, 87.92572%, 19.920349%)" offset="0.199219"/><stop stop-opacity="1" stop-color="rgb(16.410828%, 87.911987%, 20.310974%)" offset="0.203125"/><stop stop-opacity="1" stop-color="rgb(16.537476%, 87.898254%, 20.701599%)" offset="0.207031"/><stop stop-opacity="1" stop-color="rgb(16.665649%, 87.884521%, 21.092224%)" offset="0.210937"/><stop stop-opacity="1" stop-color="rgb(16.792297%, 87.870789%, 21.482849%)" offset="0.214844"/><stop stop-opacity="1" stop-color="rgb(16.918945%, 87.857056%, 21.873474%)" offset="0.21875"/><stop stop-opacity="1" stop-color="rgb(17.045593%, 87.843323%, 22.264099%)" offset="0.222656"/><stop stop-opacity="1" stop-color="rgb(17.173767%, 87.82959%, 22.654724%)" offset="0.226562"/><stop stop-opacity="1" stop-color="rgb(17.300415%, 87.815857%, 23.045349%)" offset="0.230469"/><stop stop-opacity="1" stop-color="rgb(17.428589%, 87.802124%, 23.435974%)" offset="0.234375"/><stop stop-opacity="1" stop-color="rgb(17.555237%, 87.788391%, 23.826599%)" offset="0.238281"/><stop stop-opacity="1" stop-color="rgb(17.681885%, 87.774658%, 24.217224%)" offset="0.242187"/><stop stop-opacity="1" stop-color="rgb(17.808533%, 87.760925%, 24.607849%)" offset="0.246094"/><stop stop-opacity="1" stop-color="rgb(17.936707%, 87.747192%, 24.998474%)" offset="0.25"/><stop stop-opacity="1" stop-color="rgb(18.063354%, 87.733459%, 25.389099%)" offset="0.253906"/><stop stop-opacity="1" stop-color="rgb(18.191528%, 87.719727%, 25.779724%)" offset="0.257813"/><stop stop-opacity="1" stop-color="rgb(18.318176%, 87.705994%, 26.170349%)" offset="0.261719"/><stop stop-opacity="1" stop-color="rgb(18.444824%, 87.692261%, 26.560974%)" offset="0.265625"/><stop stop-opacity="1" stop-color="rgb(18.571472%, 87.677002%, 26.951599%)" offset="0.269531"/><stop stop-opacity="1" stop-color="rgb(18.699646%, 87.663269%, 27.342224%)" offset="0.273438"/><stop stop-opacity="1" stop-color="rgb(18.826294%, 87.649536%, 27.732849%)" offset="0.277344"/><stop stop-opacity="1" stop-color="rgb(18.954468%, 87.635803%, 28.123474%)" offset="0.28125"/><stop stop-opacity="1" stop-color="rgb(19.081116%, 87.62207%, 28.514099%)" offset="0.285156"/><stop stop-opacity="1" stop-color="rgb(19.207764%, 87.608337%, 28.904724%)" offset="0.289062"/><stop stop-opacity="1" stop-color="rgb(19.334412%, 87.594604%, 29.295349%)" offset="0.292969"/><stop stop-opacity="1" stop-color="rgb(19.462585%, 87.580872%, 29.685974%)" offset="0.296875"/><stop stop-opacity="1" stop-color="rgb(19.589233%, 87.567139%, 30.076599%)" offset="0.300781"/><stop stop-opacity="1" stop-color="rgb(19.717407%, 87.553406%, 30.467224%)" offset="0.304688"/><stop stop-opacity="1" stop-color="rgb(19.844055%, 87.539673%, 30.857849%)" offset="0.308594"/><stop stop-opacity="1" stop-color="rgb(19.970703%, 87.52594%, 31.248474%)" offset="0.3125"/><stop stop-opacity="1" stop-color="rgb(20.097351%, 87.512207%, 31.639099%)" offset="0.316406"/><stop stop-opacity="1" stop-color="rgb(20.225525%, 87.498474%, 32.029724%)" offset="0.320312"/><stop stop-opacity="1" stop-color="rgb(20.352173%, 87.484741%, 32.420349%)" offset="0.324219"/><stop stop-opacity="1" stop-color="rgb(20.480347%, 87.471008%, 32.810974%)" offset="0.328125"/><stop stop-opacity="1" stop-color="rgb(20.606995%, 87.457275%, 33.201599%)" offset="0.332031"/><stop stop-opacity="1" stop-color="rgb(20.733643%, 87.443542%, 33.592224%)" offset="0.335938"/><stop stop-opacity="1" stop-color="rgb(20.860291%, 87.42981%, 33.982849%)" offset="0.339844"/><stop stop-opacity="1" stop-color="rgb(20.988464%, 87.416077%, 34.373474%)" offset="0.34375"/><stop stop-opacity="1" stop-color="rgb(21.115112%, 87.402344%, 34.764099%)" offset="0.347656"/><stop stop-opacity="1" stop-color="rgb(21.243286%, 87.388611%, 35.154724%)" offset="0.351562"/><stop stop-opacity="1" stop-color="rgb(21.369934%, 87.374878%, 35.545349%)" offset="0.355469"/><stop stop-opacity="1" stop-color="rgb(21.496582%, 87.361145%, 35.935974%)" offset="0.359375"/><stop stop-opacity="1" stop-color="rgb(21.62323%, 87.347412%, 36.326599%)" offset="0.363281"/><stop stop-opacity="1" stop-color="rgb(21.751404%, 87.333679%, 36.717224%)" offset="0.367187"/><stop stop-opacity="1" stop-color="rgb(21.878052%, 87.319946%, 37.107849%)" offset="0.371094"/><stop stop-opacity="1" stop-color="rgb(22.006226%, 87.306213%, 37.498474%)" offset="0.375"/><stop stop-opacity="1" stop-color="rgb(22.132874%, 87.290955%, 37.889099%)" offset="0.378906"/><stop stop-opacity="1" stop-color="rgb(22.259521%, 87.277222%, 38.279724%)" offset="0.382813"/><stop stop-opacity="1" stop-color="rgb(22.386169%, 87.263489%, 38.670349%)" offset="0.386719"/><stop stop-opacity="1" stop-color="rgb(22.514343%, 87.249756%, 39.060974%)" offset="0.390625"/><stop stop-opacity="1" stop-color="rgb(22.640991%, 87.236023%, 39.451599%)" offset="0.394531"/><stop stop-opacity="1" stop-color="rgb(22.767639%, 87.22229%, 39.842224%)" offset="0.398438"/><stop stop-opacity="1" stop-color="rgb(22.894287%, 87.208557%, 40.232849%)" offset="0.402344"/><stop stop-opacity="1" stop-color="rgb(23.022461%, 87.194824%, 40.623474%)" offset="0.40625"/><stop stop-opacity="1" stop-color="rgb(23.149109%, 87.181091%, 41.014099%)" offset="0.410156"/><stop stop-opacity="1" stop-color="rgb(23.277283%, 87.167358%, 41.404724%)" offset="0.414062"/><stop stop-opacity="1" stop-color="rgb(23.403931%, 87.153625%, 41.795349%)" offset="0.417969"/><stop stop-opacity="1" stop-color="rgb(23.530579%, 87.139893%, 42.185974%)" offset="0.421875"/><stop stop-opacity="1" stop-color="rgb(23.657227%, 87.12616%, 42.576599%)" offset="0.425781"/><stop stop-opacity="1" stop-color="rgb(23.7854%, 87.112427%, 42.967224%)" offset="0.429688"/><stop stop-opacity="1" stop-color="rgb(23.912048%, 87.098694%, 43.357849%)" offset="0.433594"/><stop stop-opacity="1" stop-color="rgb(24.040222%, 87.084961%, 43.748474%)" offset="0.4375"/><stop stop-opacity="1" stop-color="rgb(24.16687%, 87.071228%, 44.139099%)" offset="0.441406"/><stop stop-opacity="1" stop-color="rgb(24.293518%, 87.057495%, 44.529724%)" offset="0.445312"/><stop stop-opacity="1" stop-color="rgb(24.420166%, 87.043762%, 44.920349%)" offset="0.449219"/><stop stop-opacity="1" stop-color="rgb(24.54834%, 87.030029%, 45.310974%)" offset="0.453125"/><stop stop-opacity="1" stop-color="rgb(24.674988%, 87.016296%, 45.701599%)" offset="0.457031"/><stop stop-opacity="1" stop-color="rgb(24.803162%, 87.002563%, 46.092224%)" offset="0.460938"/><stop stop-opacity="1" stop-color="rgb(24.92981%, 86.988831%, 46.482849%)" offset="0.464844"/><stop stop-opacity="1" stop-color="rgb(25.056458%, 86.975098%, 46.873474%)" offset="0.46875"/><stop stop-opacity="1" stop-color="rgb(25.183105%, 86.961365%, 47.264099%)" offset="0.472656"/><stop stop-opacity="1" stop-color="rgb(25.311279%, 86.947632%, 47.654724%)" offset="0.476562"/><stop stop-opacity="1" stop-color="rgb(25.437927%, 86.932373%, 48.045349%)" offset="0.480469"/><stop stop-opacity="1" stop-color="rgb(25.566101%, 86.91864%, 48.435974%)" offset="0.484375"/><stop stop-opacity="1" stop-color="rgb(25.692749%, 86.904907%, 48.826599%)" offset="0.488281"/><stop stop-opacity="1" stop-color="rgb(25.819397%, 86.891174%, 49.217224%)" offset="0.492187"/><stop stop-opacity="1" stop-color="rgb(25.946045%, 86.877441%, 49.607849%)" offset="0.496094"/><stop stop-opacity="1" stop-color="rgb(26.074219%, 86.863708%, 49.998474%)" offset="0.5"/><stop stop-opacity="1" stop-color="rgb(26.200867%, 86.849976%, 50.389099%)" offset="0.503906"/><stop stop-opacity="1" stop-color="rgb(26.329041%, 86.836243%, 50.779724%)" offset="0.507812"/><stop stop-opacity="1" stop-color="rgb(26.455688%, 86.82251%, 51.170349%)" offset="0.511719"/><stop stop-opacity="1" stop-color="rgb(26.582336%, 86.808777%, 51.560974%)" offset="0.515625"/><stop stop-opacity="1" stop-color="rgb(26.708984%, 86.795044%, 51.951599%)" offset="0.519531"/><stop stop-opacity="1" stop-color="rgb(26.837158%, 86.781311%, 52.342224%)" offset="0.523438"/><stop stop-opacity="1" stop-color="rgb(26.963806%, 86.767578%, 52.732849%)" offset="0.527344"/><stop stop-opacity="1" stop-color="rgb(27.09198%, 86.753845%, 53.123474%)" offset="0.53125"/><stop stop-opacity="1" stop-color="rgb(27.218628%, 86.740112%, 53.514099%)" offset="0.535156"/><stop stop-opacity="1" stop-color="rgb(27.345276%, 86.726379%, 53.904724%)" offset="0.539063"/><stop stop-opacity="1" stop-color="rgb(27.471924%, 86.712646%, 54.295349%)" offset="0.542969"/><stop stop-opacity="1" stop-color="rgb(27.600098%, 86.698914%, 54.685974%)" offset="0.546875"/><stop stop-opacity="1" stop-color="rgb(27.726746%, 86.685181%, 55.076599%)" offset="0.550781"/><stop stop-opacity="1" stop-color="rgb(27.854919%, 86.671448%, 55.467224%)" offset="0.554687"/><stop stop-opacity="1" stop-color="rgb(27.981567%, 86.657715%, 55.857849%)" offset="0.558594"/><stop stop-opacity="1" stop-color="rgb(28.108215%, 86.643982%, 56.248474%)" offset="0.5625"/><stop stop-opacity="1" stop-color="rgb(28.234863%, 86.630249%, 56.639099%)" offset="0.566406"/><stop stop-opacity="1" stop-color="rgb(28.363037%, 86.616516%, 57.029724%)" offset="0.570312"/><stop stop-opacity="1" stop-color="rgb(28.489685%, 86.602783%, 57.420349%)" offset="0.574219"/><stop stop-opacity="1" stop-color="rgb(28.617859%, 86.58905%, 57.810974%)" offset="0.578125"/><stop stop-opacity="1" stop-color="rgb(28.744507%, 86.575317%, 58.201599%)" offset="0.582031"/><stop stop-opacity="1" stop-color="rgb(28.871155%, 86.561584%, 58.592224%)" offset="0.585938"/><stop stop-opacity="1" stop-color="rgb(28.997803%, 86.546326%, 58.982849%)" offset="0.589844"/><stop stop-opacity="1" stop-color="rgb(29.125977%, 86.532593%, 59.373474%)" offset="0.59375"/><stop stop-opacity="1" stop-color="rgb(29.252625%, 86.51886%, 59.764099%)" offset="0.597656"/><stop stop-opacity="1" stop-color="rgb(29.380798%, 86.505127%, 60.154724%)" offset="0.601562"/><stop stop-opacity="1" stop-color="rgb(29.507446%, 86.491394%, 60.545349%)" offset="0.605469"/><stop stop-opacity="1" stop-color="rgb(29.634094%, 86.477661%, 60.935974%)" offset="0.609375"/><stop stop-opacity="1" stop-color="rgb(29.760742%, 86.463928%, 61.326599%)" offset="0.613281"/><stop stop-opacity="1" stop-color="rgb(29.888916%, 86.450195%, 61.717224%)" offset="0.617188"/><stop stop-opacity="1" stop-color="rgb(30.015564%, 86.436462%, 62.107849%)" offset="0.621094"/><stop stop-opacity="1" stop-color="rgb(30.143738%, 86.422729%, 62.498474%)" offset="0.625"/><stop stop-opacity="1" stop-color="rgb(30.270386%, 86.408997%, 62.889099%)" offset="0.628906"/><stop stop-opacity="1" stop-color="rgb(30.397034%, 86.395264%, 63.279724%)" offset="0.632812"/><stop stop-opacity="1" stop-color="rgb(30.523682%, 86.381531%, 63.670349%)" offset="0.636719"/><stop stop-opacity="1" stop-color="rgb(30.651855%, 86.367798%, 64.060974%)" offset="0.640625"/><stop stop-opacity="1" stop-color="rgb(30.778503%, 86.354065%, 64.451599%)" offset="0.644531"/><stop stop-opacity="1" stop-color="rgb(30.905151%, 86.340332%, 64.842224%)" offset="0.648438"/><stop stop-opacity="1" stop-color="rgb(31.031799%, 86.326599%, 65.232849%)" offset="0.652344"/><stop stop-opacity="1" stop-color="rgb(31.159973%, 86.312866%, 65.623474%)" offset="0.65625"/><stop stop-opacity="1" stop-color="rgb(31.286621%, 86.299133%, 66.014099%)" offset="0.660156"/><stop stop-opacity="1" stop-color="rgb(31.414795%, 86.2854%, 66.404724%)" offset="0.664062"/><stop stop-opacity="1" stop-color="rgb(31.541443%, 86.271667%, 66.795349%)" offset="0.667969"/><stop stop-opacity="1" stop-color="rgb(31.668091%, 86.257935%, 67.185974%)" offset="0.671875"/><stop stop-opacity="1" stop-color="rgb(31.794739%, 86.244202%, 67.576599%)" offset="0.675781"/><stop stop-opacity="1" stop-color="rgb(31.922913%, 86.230469%, 67.967224%)" offset="0.679688"/><stop stop-opacity="1" stop-color="rgb(32.049561%, 86.216736%, 68.357849%)" offset="0.683594"/><stop stop-opacity="1" stop-color="rgb(32.177734%, 86.203003%, 68.748474%)" offset="0.6875"/><stop stop-opacity="1" stop-color="rgb(32.304382%, 86.18927%, 69.139099%)" offset="0.691406"/><stop stop-opacity="1" stop-color="rgb(32.43103%, 86.175537%, 69.529724%)" offset="0.695313"/><stop stop-opacity="1" stop-color="rgb(32.557678%, 86.160278%, 69.920349%)" offset="0.699219"/><stop stop-opacity="1" stop-color="rgb(32.685852%, 86.146545%, 70.310974%)" offset="0.703125"/><stop stop-opacity="1" stop-color="rgb(32.8125%, 86.132812%, 70.701599%)" offset="0.707031"/><stop stop-opacity="1" stop-color="rgb(32.940674%, 86.11908%, 71.092224%)" offset="0.710937"/><stop stop-opacity="1" stop-color="rgb(33.067322%, 86.105347%, 71.482849%)" offset="0.714844"/><stop stop-opacity="1" stop-color="rgb(33.19397%, 86.091614%, 71.873474%)" offset="0.71875"/><stop stop-opacity="1" stop-color="rgb(33.320618%, 86.077881%, 72.264099%)" offset="0.722656"/><stop stop-opacity="1" stop-color="rgb(33.448792%, 86.064148%, 72.654724%)" offset="0.726562"/><stop stop-opacity="1" stop-color="rgb(33.575439%, 86.050415%, 73.045349%)" offset="0.730469"/><stop stop-opacity="1" stop-color="rgb(33.703613%, 86.036682%, 73.435974%)" offset="0.734375"/><stop stop-opacity="1" stop-color="rgb(33.830261%, 86.022949%, 73.826599%)" offset="0.738281"/><stop stop-opacity="1" stop-color="rgb(33.956909%, 86.009216%, 74.217224%)" offset="0.742188"/><stop stop-opacity="1" stop-color="rgb(34.083557%, 85.995483%, 74.607849%)" offset="0.746094"/><stop stop-opacity="1" stop-color="rgb(34.211731%, 85.98175%, 74.998474%)" offset="0.75"/><stop stop-opacity="1" stop-color="rgb(34.338379%, 85.968018%, 75.389099%)" offset="0.753906"/><stop stop-opacity="1" stop-color="rgb(34.466553%, 85.954285%, 75.779724%)" offset="0.757812"/><stop stop-opacity="1" stop-color="rgb(34.593201%, 85.940552%, 76.170349%)" offset="0.761719"/><stop stop-opacity="1" stop-color="rgb(34.719849%, 85.926819%, 76.560974%)" offset="0.765625"/><stop stop-opacity="1" stop-color="rgb(34.846497%, 85.913086%, 76.951599%)" offset="0.769531"/><stop stop-opacity="1" stop-color="rgb(34.97467%, 85.899353%, 77.342224%)" offset="0.773438"/><stop stop-opacity="1" stop-color="rgb(35.101318%, 85.88562%, 77.732849%)" offset="0.777344"/><stop stop-opacity="1" stop-color="rgb(35.229492%, 85.871887%, 78.123474%)" offset="0.78125"/><stop stop-opacity="1" stop-color="rgb(35.35614%, 85.858154%, 78.514099%)" offset="0.785156"/><stop stop-opacity="1" stop-color="rgb(35.482788%, 85.844421%, 78.904724%)" offset="0.789063"/><stop stop-opacity="1" stop-color="rgb(35.609436%, 85.830688%, 79.295349%)" offset="0.792969"/><stop stop-opacity="1" stop-color="rgb(35.73761%, 85.816956%, 79.685974%)" offset="0.796875"/><stop stop-opacity="1" stop-color="rgb(35.864258%, 85.801697%, 80.076599%)" offset="0.800781"/><stop stop-opacity="1" stop-color="rgb(35.992432%, 85.787964%, 80.467224%)" offset="0.804687"/><stop stop-opacity="1" stop-color="rgb(36.11908%, 85.774231%, 80.857849%)" offset="0.808594"/><stop stop-opacity="1" stop-color="rgb(36.245728%, 85.760498%, 81.248474%)" offset="0.8125"/><stop stop-opacity="1" stop-color="rgb(36.372375%, 85.746765%, 81.639099%)" offset="0.816406"/><stop stop-opacity="1" stop-color="rgb(36.500549%, 85.733032%, 82.029724%)" offset="0.820312"/><stop stop-opacity="1" stop-color="rgb(36.627197%, 85.719299%, 82.420349%)" offset="0.824219"/><stop stop-opacity="1" stop-color="rgb(36.755371%, 85.705566%, 82.810974%)" offset="0.828125"/><stop stop-opacity="1" stop-color="rgb(36.882019%, 85.691833%, 83.201599%)" offset="0.832031"/><stop stop-opacity="1" stop-color="rgb(37.008667%, 85.678101%, 83.592224%)" offset="0.835938"/><stop stop-opacity="1" stop-color="rgb(37.135315%, 85.664368%, 83.982849%)" offset="0.839844"/><stop stop-opacity="1" stop-color="rgb(37.263489%, 85.650635%, 84.373474%)" offset="0.84375"/><stop stop-opacity="1" stop-color="rgb(37.390137%, 85.636902%, 84.764099%)" offset="0.847656"/><stop stop-opacity="1" stop-color="rgb(37.518311%, 85.623169%, 85.154724%)" offset="0.851562"/><stop stop-opacity="1" stop-color="rgb(37.644958%, 85.609436%, 85.545349%)" offset="0.855469"/><stop stop-opacity="1" stop-color="rgb(37.771606%, 85.595703%, 85.935974%)" offset="0.859375"/><stop stop-opacity="1" stop-color="rgb(37.898254%, 85.58197%, 86.326599%)" offset="0.863281"/><stop stop-opacity="1" stop-color="rgb(38.026428%, 85.568237%, 86.717224%)" offset="0.867188"/><stop stop-opacity="1" stop-color="rgb(38.153076%, 85.554504%, 87.107849%)" offset="0.871094"/><stop stop-opacity="1" stop-color="rgb(38.279724%, 85.540771%, 87.498474%)" offset="0.875"/><stop stop-opacity="1" stop-color="rgb(38.406372%, 85.527039%, 87.889099%)" offset="0.878906"/><stop stop-opacity="1" stop-color="rgb(38.534546%, 85.513306%, 88.279724%)" offset="0.882812"/><stop stop-opacity="1" stop-color="rgb(38.661194%, 85.499573%, 88.670349%)" offset="0.886719"/><stop stop-opacity="1" stop-color="rgb(38.789368%, 85.48584%, 89.060974%)" offset="0.890625"/><stop stop-opacity="1" stop-color="rgb(38.916016%, 85.472107%, 89.451599%)" offset="0.894531"/><stop stop-opacity="1" stop-color="rgb(39.042664%, 85.458374%, 89.842224%)" offset="0.898438"/><stop stop-opacity="1" stop-color="rgb(39.169312%, 85.444641%, 90.232849%)" offset="0.902344"/><stop stop-opacity="1" stop-color="rgb(39.297485%, 85.430908%, 90.623474%)" offset="0.90625"/><stop stop-opacity="1" stop-color="rgb(39.424133%, 85.415649%, 91.014099%)" offset="0.910156"/><stop stop-opacity="1" stop-color="rgb(39.552307%, 85.401917%, 91.404724%)" offset="0.914062"/><stop stop-opacity="1" stop-color="rgb(39.678955%, 85.388184%, 91.795349%)" offset="0.917969"/><stop stop-opacity="1" stop-color="rgb(39.805603%, 85.374451%, 92.185974%)" offset="0.921875"/><stop stop-opacity="1" stop-color="rgb(39.932251%, 85.360718%, 92.576599%)" offset="0.925781"/><stop stop-opacity="1" stop-color="rgb(40.060425%, 85.346985%, 92.967224%)" offset="0.929688"/><stop stop-opacity="1" stop-color="rgb(40.187073%, 85.333252%, 93.357849%)" offset="0.933594"/><stop stop-opacity="1" stop-color="rgb(40.315247%, 85.319519%, 93.748474%)" offset="0.9375"/><stop stop-opacity="1" stop-color="rgb(40.441895%, 85.305786%, 94.139099%)" offset="0.941406"/><stop stop-opacity="1" stop-color="rgb(40.568542%, 85.292053%, 94.529724%)" offset="0.945313"/><stop stop-opacity="1" stop-color="rgb(40.69519%, 85.27832%, 94.920349%)" offset="0.949219"/><stop stop-opacity="1" stop-color="rgb(40.823364%, 85.264587%, 95.310974%)" offset="0.953125"/><stop stop-opacity="1" stop-color="rgb(40.950012%, 85.250854%, 95.701599%)" offset="0.957031"/><stop stop-opacity="1" stop-color="rgb(41.078186%, 85.237122%, 96.092224%)" offset="0.960937"/><stop stop-opacity="1" stop-color="rgb(41.204834%, 85.223389%, 96.482849%)" offset="0.964844"/><stop stop-opacity="1" stop-color="rgb(41.331482%, 85.209656%, 96.873474%)" offset="0.96875"/><stop stop-opacity="1" stop-color="rgb(41.45813%, 85.195923%, 97.264099%)" offset="0.972656"/><stop stop-opacity="1" stop-color="rgb(41.586304%, 85.18219%, 97.654724%)" offset="0.976562"/><stop stop-opacity="1" stop-color="rgb(41.712952%, 85.168457%, 98.045349%)" offset="0.980469"/><stop stop-opacity="1" stop-color="rgb(41.841125%, 85.154724%, 98.435974%)" offset="0.984375"/><stop stop-opacity="1" stop-color="rgb(41.967773%, 85.140991%, 98.826599%)" offset="0.988281"/><stop stop-opacity="1" stop-color="rgb(42.094421%, 85.127258%, 99.217224%)" offset="0.992188"/><stop stop-opacity="1" stop-color="rgb(42.221069%, 85.113525%, 99.607849%)" offset="0.996094"/><stop stop-opacity="1" stop-color="rgb(42.349243%, 85.099792%, 99.998474%)" offset="1"/></linearGradient><clipPath id="5b57c339eb"><rect x="0" width="202" y="0" height="10"/></clipPath></defs><g clip-path="url(#c6421fe890)"><g clip-path="url(#f8946d1e30)"><path fill="url(#4547e2dad2)" d="M 112.714844 126.410156 L 112.714844 187.160156 L 262.292969 187.160156 L 262.292969 126.410156 Z M 112.714844 126.410156 " fill-rule="nonzero"/></g></g><g fill="#ffffff" fill-opacity="1"><g transform="translate(128.143209, 237.964907)"><g><path d="M 2.65625 0 L 2.65625 -16 L 4.484375 -17.828125 L 14.90625 -17.828125 L 16.765625 -16 L 16.765625 0 L 14.34375 0 L 14.34375 -6.015625 L 5.0625 -6.015625 L 5.0625 0 Z M 5.0625 -8.15625 L 14.34375 -8.15625 L 14.34375 -14.90625 L 13.53125 -15.6875 L 5.859375 -15.6875 L 5.0625 -14.90625 Z M 5.0625 -8.15625 "/></g></g></g><g fill="#ffffff" fill-opacity="1"><g transform="translate(150.985923, 237.964907)"><g><path d="M 7.515625 0 L 2.65625 -4.859375 L 2.65625 -17.828125 L 5.0625 -17.828125 L 5.0625 -5.671875 L 8.609375 -2.140625 L 10.796875 -2.140625 L 14.34375 -5.671875 L 14.34375 -17.828125 L 16.765625 -17.828125 L 16.765625 -4.859375 L 11.875 0 Z M 7.515625 0 "/></g></g></g><g fill="#ffffff" fill-opacity="1"><g transform="translate(173.828638, 237.964907)"><g><path d="M 2.65625 0 L 2.65625 -17.828125 L 15.484375 -17.828125 L 15.484375 -15.6875 L 5.0625 -15.6875 L 5.0625 -9.984375 L 12.9375 -9.984375 L 12.9375 -7.84375 L 5.0625 -7.84375 L 5.0625 -2.140625 L 15.484375 -2.140625 L 15.484375 0 Z M 2.65625 0 "/></g></g></g><g fill="#ffffff" fill-opacity="1"><g transform="translate(194.252187, 237.964907)"><g><path d="M 2.65625 0 L 2.65625 -16 L 4.484375 -17.828125 L 14.90625 -17.828125 L 16.765625 -16 L 16.765625 0 L 14.34375 0 L 14.34375 -14.90625 L 13.53125 -15.6875 L 5.859375 -15.6875 L 5.0625 -14.90625 L 5.0625 0 Z M 2.65625 0 "/></g></g></g><g fill="#ffffff" fill-opacity="1"><g transform="translate(217.094902, 237.964907)"><g><path d="M 2.65625 0 L 2.65625 -17.828125 L 5.0625 -17.828125 L 5.0625 0 Z M 2.65625 0 "/></g></g></g><g fill="#ffffff" fill-opacity="1"><g transform="translate(228.274691, 237.964907)"><g><path d="M 4.078125 0 L 2.234375 -1.859375 L 2.234375 -16 L 4.078125 -17.828125 L 14.484375 -17.828125 L 16.328125 -16 L 16.328125 -1.859375 L 14.484375 0 L 10.5 0 L 10.5 3.03125 L 8.078125 3.03125 L 8.078125 0 Z M 4.65625 -2.921875 L 5.453125 -2.140625 L 13.109375 -2.140625 L 13.90625 -2.921875 L 13.90625 -14.90625 L 13.109375 -15.6875 L 5.453125 -15.6875 L 4.65625 -14.90625 Z M 4.65625 -2.921875 "/></g></g></g><g transform="matrix(1, 0, 0, 1, 89, 258)"><g clip-path="url(#5b57c339eb)"><g fill="#ffffff" fill-opacity="1"><g transform="translate(0.986385, 7.427862)"><g><path d="M 0.59375 -4.390625 L 1.84375 -4.390625 C 2.382812 -4.390625 2.789062 -4.304688 3.0625 -4.140625 C 3.34375 -3.972656 3.484375 -3.691406 3.484375 -3.296875 C 3.484375 -3.128906 3.453125 -2.976562 3.390625 -2.84375 C 3.328125 -2.707031 3.234375 -2.59375 3.109375 -2.5 C 2.984375 -2.414062 2.832031 -2.359375 2.65625 -2.328125 L 2.65625 -2.296875 C 2.84375 -2.265625 3.007812 -2.207031 3.15625 -2.125 C 3.300781 -2.050781 3.414062 -1.941406 3.5 -1.796875 C 3.59375 -1.648438 3.640625 -1.46875 3.640625 -1.25 C 3.640625 -0.976562 3.578125 -0.75 3.453125 -0.5625 C 3.328125 -0.375 3.148438 -0.234375 2.921875 -0.140625 C 2.691406 -0.046875 2.421875 0 2.109375 0 L 0.59375 0 Z M 1.109375 -2.5 L 1.953125 -2.5 C 2.328125 -2.5 2.585938 -2.5625 2.734375 -2.6875 C 2.890625 -2.8125 2.96875 -3 2.96875 -3.25 C 2.96875 -3.5 2.878906 -3.675781 2.703125 -3.78125 C 2.523438 -3.894531 2.242188 -3.953125 1.859375 -3.953125 L 1.109375 -3.953125 Z M 1.109375 -2.078125 L 1.109375 -0.4375 L 2.015625 -0.4375 C 2.410156 -0.4375 2.6875 -0.507812 2.84375 -0.65625 C 3.007812 -0.8125 3.09375 -1.019531 3.09375 -1.28125 C 3.09375 -1.445312 3.054688 -1.585938 2.984375 -1.703125 C 2.910156 -1.828125 2.789062 -1.921875 2.625 -1.984375 C 2.46875 -2.046875 2.25 -2.078125 1.96875 -2.078125 Z M 1.109375 -2.078125 "/></g></g></g><g fill="#ffffff" fill-opacity="1"><g transform="translate(9.865372, 7.427862)"><g><path d="M 1.78125 -4.390625 C 2.144531 -4.390625 2.441406 -4.34375 2.671875 -4.25 C 2.910156 -4.15625 3.085938 -4.019531 3.203125 -3.84375 C 3.316406 -3.664062 3.375 -3.429688 3.375 -3.140625 C 3.375 -2.910156 3.332031 -2.71875 3.25 -2.5625 C 3.164062 -2.40625 3.054688 -2.28125 2.921875 -2.1875 C 2.785156 -2.09375 2.640625 -2.019531 2.484375 -1.96875 L 3.6875 0 L 3.09375 0 L 2.015625 -1.828125 L 1.109375 -1.828125 L 1.109375 0 L 0.59375 0 L 0.59375 -4.390625 Z M 1.75 -3.9375 L 1.109375 -3.9375 L 1.109375 -2.265625 L 1.8125 -2.265625 C 2.164062 -2.265625 2.425781 -2.335938 2.59375 -2.484375 C 2.757812 -2.628906 2.84375 -2.84375 2.84375 -3.125 C 2.84375 -3.425781 2.753906 -3.632812 2.578125 -3.75 C 2.398438 -3.875 2.125 -3.9375 1.75 -3.9375 Z M 1.75 -3.9375 "/></g></g></g><g fill="#ffffff" fill-opacity="1"><g transform="translate(18.567462, 7.427862)"><g><path d="M 0.59375 0 L 0.59375 -4.390625 L 1.109375 -4.390625 L 1.109375 0 Z M 0.59375 0 "/></g></g></g><g fill="#ffffff" fill-opacity="1"><g transform="translate(25.19477, 7.427862)"><g><path d="M 4.03125 0 L 3.4375 0 L 1.046875 -3.6875 L 1.03125 -3.6875 C 1.03125 -3.582031 1.035156 -3.46875 1.046875 -3.34375 C 1.054688 -3.21875 1.0625 -3.082031 1.0625 -2.9375 C 1.070312 -2.800781 1.078125 -2.660156 1.078125 -2.515625 L 1.078125 0 L 0.59375 0 L 0.59375 -4.390625 L 1.1875 -4.390625 L 3.5625 -0.71875 L 3.59375 -0.71875 C 3.582031 -0.78125 3.570312 -0.875 3.5625 -1 C 3.5625 -1.132812 3.554688 -1.273438 3.546875 -1.421875 C 3.546875 -1.578125 3.546875 -1.71875 3.546875 -1.84375 L 3.546875 -4.390625 L 4.03125 -4.390625 Z M 4.03125 0 "/></g></g></g><g fill="#ffffff" fill-opacity="1"><g transform="translate(34.730371, 7.427862)"><g><path d="M 2.46875 -2.296875 L 4 -2.296875 L 4 -0.171875 C 3.769531 -0.0859375 3.535156 -0.03125 3.296875 0 C 3.054688 0.0390625 2.785156 0.0625 2.484375 0.0625 C 2.023438 0.0625 1.640625 -0.0234375 1.328125 -0.203125 C 1.015625 -0.390625 0.773438 -0.648438 0.609375 -0.984375 C 0.453125 -1.328125 0.375 -1.726562 0.375 -2.1875 C 0.375 -2.644531 0.460938 -3.039062 0.640625 -3.375 C 0.816406 -3.71875 1.070312 -3.984375 1.40625 -4.171875 C 1.75 -4.359375 2.160156 -4.453125 2.640625 -4.453125 C 2.878906 -4.453125 3.109375 -4.425781 3.328125 -4.375 C 3.546875 -4.332031 3.753906 -4.269531 3.953125 -4.1875 L 3.75 -3.75 C 3.59375 -3.8125 3.414062 -3.867188 3.21875 -3.921875 C 3.019531 -3.972656 2.816406 -4 2.609375 -4 C 2.253906 -4 1.945312 -3.925781 1.6875 -3.78125 C 1.4375 -3.632812 1.242188 -3.425781 1.109375 -3.15625 C 0.972656 -2.882812 0.90625 -2.5625 0.90625 -2.1875 C 0.90625 -1.820312 0.960938 -1.503906 1.078125 -1.234375 C 1.203125 -0.960938 1.390625 -0.75 1.640625 -0.59375 C 1.890625 -0.445312 2.207031 -0.375 2.59375 -0.375 C 2.789062 -0.375 2.960938 -0.382812 3.109375 -0.40625 C 3.253906 -0.4375 3.382812 -0.46875 3.5 -0.5 L 3.5 -1.84375 L 2.46875 -1.84375 Z M 2.46875 -2.296875 "/></g></g></g><g fill="#ffffff" fill-opacity="1"><g transform="translate(44.107065, 7.427862)"><g/></g></g><g fill="#ffffff" fill-opacity="1"><g transform="translate(50.614443, 7.427862)"><g><path d="M 1.71875 -2.1875 L 2.890625 -4.390625 L 3.4375 -4.390625 L 1.96875 -1.703125 L 1.96875 0 L 1.46875 0 L 1.46875 -1.671875 L 0 -4.390625 L 0.5625 -4.390625 Z M 1.71875 -2.1875 "/></g></g></g><g fill="#ffffff" fill-opacity="1"><g transform="translate(58.959743, 7.427862)"><g><path d="M 4.40625 -2.203125 C 4.40625 -1.859375 4.359375 -1.546875 4.265625 -1.265625 C 4.179688 -0.992188 4.054688 -0.757812 3.890625 -0.5625 C 3.722656 -0.363281 3.515625 -0.207031 3.265625 -0.09375 C 3.015625 0.0078125 2.722656 0.0625 2.390625 0.0625 C 2.054688 0.0625 1.757812 0.0078125 1.5 -0.09375 C 1.25 -0.207031 1.039062 -0.363281 0.875 -0.5625 C 0.707031 -0.757812 0.582031 -1 0.5 -1.28125 C 0.414062 -1.5625 0.375 -1.867188 0.375 -2.203125 C 0.375 -2.648438 0.445312 -3.039062 0.59375 -3.375 C 0.738281 -3.71875 0.960938 -3.984375 1.265625 -4.171875 C 1.566406 -4.359375 1.945312 -4.453125 2.40625 -4.453125 C 2.832031 -4.453125 3.191406 -4.359375 3.484375 -4.171875 C 3.785156 -3.984375 4.015625 -3.722656 4.171875 -3.390625 C 4.328125 -3.054688 4.40625 -2.660156 4.40625 -2.203125 Z M 0.90625 -2.203125 C 0.90625 -1.828125 0.957031 -1.503906 1.0625 -1.234375 C 1.175781 -0.960938 1.34375 -0.75 1.5625 -0.59375 C 1.78125 -0.445312 2.054688 -0.375 2.390625 -0.375 C 2.734375 -0.375 3.007812 -0.445312 3.21875 -0.59375 C 3.4375 -0.75 3.597656 -0.960938 3.703125 -1.234375 C 3.804688 -1.503906 3.859375 -1.828125 3.859375 -2.203125 C 3.859375 -2.765625 3.738281 -3.203125 3.5 -3.515625 C 3.269531 -3.835938 2.90625 -4 2.40625 -4 C 2.0625 -4 1.78125 -3.925781 1.5625 -3.78125 C 1.34375 -3.632812 1.175781 -3.425781 1.0625 -3.15625 C 0.957031 -2.894531 0.90625 -2.578125 0.90625 -2.203125 Z M 0.90625 -2.203125 "/></g></g></g><g fill="#ffffff" fill-opacity="1"><g transform="translate(68.648254, 7.427862)"><g><path d="M 3.921875 -4.390625 L 3.921875 -1.546875 C 3.921875 -1.234375 3.859375 -0.957031 3.734375 -0.71875 C 3.609375 -0.476562 3.414062 -0.285156 3.15625 -0.140625 C 2.90625 -0.00390625 2.59375 0.0625 2.21875 0.0625 C 1.675781 0.0625 1.265625 -0.0820312 0.984375 -0.375 C 0.703125 -0.675781 0.5625 -1.070312 0.5625 -1.5625 L 0.5625 -4.390625 L 1.0625 -4.390625 L 1.0625 -1.546875 C 1.0625 -1.171875 1.160156 -0.878906 1.359375 -0.671875 C 1.554688 -0.472656 1.851562 -0.375 2.25 -0.375 C 2.507812 -0.375 2.722656 -0.421875 2.890625 -0.515625 C 3.066406 -0.617188 3.195312 -0.757812 3.28125 -0.9375 C 3.363281 -1.113281 3.40625 -1.316406 3.40625 -1.546875 L 3.40625 -4.390625 Z M 3.921875 -4.390625 "/></g></g></g><g fill="#ffffff" fill-opacity="1"><g transform="translate(78.036942, 7.427862)"><g><path d="M 1.78125 -4.390625 C 2.144531 -4.390625 2.441406 -4.34375 2.671875 -4.25 C 2.910156 -4.15625 3.085938 -4.019531 3.203125 -3.84375 C 3.316406 -3.664062 3.375 -3.429688 3.375 -3.140625 C 3.375 -2.910156 3.332031 -2.71875 3.25 -2.5625 C 3.164062 -2.40625 3.054688 -2.28125 2.921875 -2.1875 C 2.785156 -2.09375 2.640625 -2.019531 2.484375 -1.96875 L 3.6875 0 L 3.09375 0 L 2.015625 -1.828125 L 1.109375 -1.828125 L 1.109375 0 L 0.59375 0 L 0.59375 -4.390625 Z M 1.75 -3.9375 L 1.109375 -3.9375 L 1.109375 -2.265625 L 1.8125 -2.265625 C 2.164062 -2.265625 2.425781 -2.335938 2.59375 -2.484375 C 2.757812 -2.628906 2.84375 -2.84375 2.84375 -3.125 C 2.84375 -3.425781 2.753906 -3.632812 2.578125 -3.75 C 2.398438 -3.875 2.125 -3.9375 1.75 -3.9375 Z M 1.75 -3.9375 "/></g></g></g><g fill="#ffffff" fill-opacity="1"><g transform="translate(86.739032, 7.427862)"><g/></g></g><g fill="#ffffff" fill-opacity="1"><g transform="translate(93.24641, 7.427862)"><g><path d="M 3.65625 -4.390625 L 2.09375 0 L 1.578125 0 L 0 -4.390625 L 0.53125 -4.390625 L 1.5625 -1.5 C 1.601562 -1.382812 1.640625 -1.269531 1.671875 -1.15625 C 1.703125 -1.050781 1.726562 -0.945312 1.75 -0.84375 C 1.78125 -0.75 1.804688 -0.660156 1.828125 -0.578125 C 1.847656 -0.660156 1.867188 -0.75 1.890625 -0.84375 C 1.921875 -0.945312 1.953125 -1.050781 1.984375 -1.15625 C 2.015625 -1.269531 2.054688 -1.382812 2.109375 -1.5 L 3.125 -4.390625 Z M 3.65625 -4.390625 "/></g></g></g><g fill="#ffffff" fill-opacity="1"><g transform="translate(101.819576, 7.427862)"><g><path d="M 0.59375 0 L 0.59375 -4.390625 L 1.109375 -4.390625 L 1.109375 0 Z M 0.59375 0 "/></g></g></g><g fill="#ffffff" fill-opacity="1"><g transform="translate(108.446883, 7.427862)"><g><path d="M 3.078125 -1.171875 C 3.078125 -0.910156 3.007812 -0.6875 2.875 -0.5 C 2.75 -0.320312 2.566406 -0.179688 2.328125 -0.078125 C 2.097656 0.015625 1.828125 0.0625 1.515625 0.0625 C 1.347656 0.0625 1.191406 0.0507812 1.046875 0.03125 C 0.898438 0.0195312 0.765625 0 0.640625 -0.03125 C 0.515625 -0.0625 0.40625 -0.0976562 0.3125 -0.140625 L 0.3125 -0.625 C 0.46875 -0.570312 0.648438 -0.515625 0.859375 -0.453125 C 1.078125 -0.398438 1.304688 -0.375 1.546875 -0.375 C 1.765625 -0.375 1.945312 -0.40625 2.09375 -0.46875 C 2.25 -0.53125 2.363281 -0.613281 2.4375 -0.71875 C 2.519531 -0.832031 2.5625 -0.96875 2.5625 -1.125 C 2.5625 -1.269531 2.523438 -1.394531 2.453125 -1.5 C 2.390625 -1.601562 2.28125 -1.695312 2.125 -1.78125 C 1.976562 -1.863281 1.773438 -1.953125 1.515625 -2.046875 C 1.328125 -2.109375 1.160156 -2.175781 1.015625 -2.25 C 0.878906 -2.332031 0.757812 -2.421875 0.65625 -2.515625 C 0.5625 -2.617188 0.488281 -2.738281 0.4375 -2.875 C 0.394531 -3.007812 0.375 -3.160156 0.375 -3.328125 C 0.375 -3.554688 0.429688 -3.753906 0.546875 -3.921875 C 0.671875 -4.097656 0.835938 -4.226562 1.046875 -4.3125 C 1.253906 -4.40625 1.492188 -4.453125 1.765625 -4.453125 C 2.003906 -4.453125 2.222656 -4.425781 2.421875 -4.375 C 2.617188 -4.332031 2.800781 -4.273438 2.96875 -4.203125 L 2.8125 -3.765625 C 2.65625 -3.828125 2.488281 -3.878906 2.3125 -3.921875 C 2.132812 -3.972656 1.953125 -4 1.765625 -4 C 1.578125 -4 1.414062 -3.96875 1.28125 -3.90625 C 1.15625 -3.851562 1.054688 -3.773438 0.984375 -3.671875 C 0.921875 -3.578125 0.890625 -3.460938 0.890625 -3.328125 C 0.890625 -3.171875 0.921875 -3.039062 0.984375 -2.9375 C 1.046875 -2.832031 1.148438 -2.738281 1.296875 -2.65625 C 1.441406 -2.582031 1.628906 -2.503906 1.859375 -2.421875 C 2.117188 -2.328125 2.335938 -2.226562 2.515625 -2.125 C 2.703125 -2.019531 2.84375 -1.890625 2.9375 -1.734375 C 3.03125 -1.585938 3.078125 -1.398438 3.078125 -1.171875 Z M 3.078125 -1.171875 "/></g></g></g><g fill="#ffffff" fill-opacity="1"><g transform="translate(116.726222, 7.427862)"><g><path d="M 0.59375 0 L 0.59375 -4.390625 L 1.109375 -4.390625 L 1.109375 0 Z M 0.59375 0 "/></g></g></g><g fill="#ffffff" fill-opacity="1"><g transform="translate(123.353529, 7.427862)"><g><path d="M 4.40625 -2.203125 C 4.40625 -1.859375 4.359375 -1.546875 4.265625 -1.265625 C 4.179688 -0.992188 4.054688 -0.757812 3.890625 -0.5625 C 3.722656 -0.363281 3.515625 -0.207031 3.265625 -0.09375 C 3.015625 0.0078125 2.722656 0.0625 2.390625 0.0625 C 2.054688 0.0625 1.757812 0.0078125 1.5 -0.09375 C 1.25 -0.207031 1.039062 -0.363281 0.875 -0.5625 C 0.707031 -0.757812 0.582031 -1 0.5 -1.28125 C 0.414062 -1.5625 0.375 -1.867188 0.375 -2.203125 C 0.375 -2.648438 0.445312 -3.039062 0.59375 -3.375 C 0.738281 -3.71875 0.960938 -3.984375 1.265625 -4.171875 C 1.566406 -4.359375 1.945312 -4.453125 2.40625 -4.453125 C 2.832031 -4.453125 3.191406 -4.359375 3.484375 -4.171875 C 3.785156 -3.984375 4.015625 -3.722656 4.171875 -3.390625 C 4.328125 -3.054688 4.40625 -2.660156 4.40625 -2.203125 Z M 0.90625 -2.203125 C 0.90625 -1.828125 0.957031 -1.503906 1.0625 -1.234375 C 1.175781 -0.960938 1.34375 -0.75 1.5625 -0.59375 C 1.78125 -0.445312 2.054688 -0.375 2.390625 -0.375 C 2.734375 -0.375 3.007812 -0.445312 3.21875 -0.59375 C 3.4375 -0.75 3.597656 -0.960938 3.703125 -1.234375 C 3.804688 -1.503906 3.859375 -1.828125 3.859375 -2.203125 C 3.859375 -2.765625 3.738281 -3.203125 3.5 -3.515625 C 3.269531 -3.835938 2.90625 -4 2.40625 -4 C 2.0625 -4 1.78125 -3.925781 1.5625 -3.78125 C 1.34375 -3.632812 1.175781 -3.425781 1.0625 -3.15625 C 0.957031 -2.894531 0.90625 -2.578125 0.90625 -2.203125 Z M 0.90625 -2.203125 "/></g></g></g><g fill="#ffffff" fill-opacity="1"><g transform="translate(133.042041, 7.427862)"><g><path d="M 4.03125 0 L 3.4375 0 L 1.046875 -3.6875 L 1.03125 -3.6875 C 1.03125 -3.582031 1.035156 -3.46875 1.046875 -3.34375 C 1.054688 -3.21875 1.0625 -3.082031 1.0625 -2.9375 C 1.070312 -2.800781 1.078125 -2.660156 1.078125 -2.515625 L 1.078125 0 L 0.59375 0 L 0.59375 -4.390625 L 1.1875 -4.390625 L 3.5625 -0.71875 L 3.59375 -0.71875 C 3.582031 -0.78125 3.570312 -0.875 3.5625 -1 C 3.5625 -1.132812 3.554688 -1.273438 3.546875 -1.421875 C 3.546875 -1.578125 3.546875 -1.71875 3.546875 -1.84375 L 3.546875 -4.390625 L 4.03125 -4.390625 Z M 4.03125 0 "/></g></g></g><g fill="#ffffff" fill-opacity="1"><g transform="translate(142.577634, 7.427862)"><g/></g></g><g fill="#ffffff" fill-opacity="1"><g transform="translate(149.08502, 7.427862)"><g><path d="M 4.40625 -2.203125 C 4.40625 -1.859375 4.359375 -1.546875 4.265625 -1.265625 C 4.179688 -0.992188 4.054688 -0.757812 3.890625 -0.5625 C 3.722656 -0.363281 3.515625 -0.207031 3.265625 -0.09375 C 3.015625 0.0078125 2.722656 0.0625 2.390625 0.0625 C 2.054688 0.0625 1.757812 0.0078125 1.5 -0.09375 C 1.25 -0.207031 1.039062 -0.363281 0.875 -0.5625 C 0.707031 -0.757812 0.582031 -1 0.5 -1.28125 C 0.414062 -1.5625 0.375 -1.867188 0.375 -2.203125 C 0.375 -2.648438 0.445312 -3.039062 0.59375 -3.375 C 0.738281 -3.71875 0.960938 -3.984375 1.265625 -4.171875 C 1.566406 -4.359375 1.945312 -4.453125 2.40625 -4.453125 C 2.832031 -4.453125 3.191406 -4.359375 3.484375 -4.171875 C 3.785156 -3.984375 4.015625 -3.722656 4.171875 -3.390625 C 4.328125 -3.054688 4.40625 -2.660156 4.40625 -2.203125 Z M 0.90625 -2.203125 C 0.90625 -1.828125 0.957031 -1.503906 1.0625 -1.234375 C 1.175781 -0.960938 1.34375 -0.75 1.5625 -0.59375 C 1.78125 -0.445312 2.054688 -0.375 2.390625 -0.375 C 2.734375 -0.375 3.007812 -0.445312 3.21875 -0.59375 C 3.4375 -0.75 3.597656 -0.960938 3.703125 -1.234375 C 3.804688 -1.503906 3.859375 -1.828125 3.859375 -2.203125 C 3.859375 -2.765625 3.738281 -3.203125 3.5 -3.515625 C 3.269531 -3.835938 2.90625 -4 2.40625 -4 C 2.0625 -4 1.78125 -3.925781 1.5625 -3.78125 C 1.34375 -3.632812 1.175781 -3.425781 1.0625 -3.15625 C 0.957031 -2.894531 0.90625 -2.578125 0.90625 -2.203125 Z M 0.90625 -2.203125 "/></g></g></g><g fill="#ffffff" fill-opacity="1"><g transform="translate(158.773539, 7.427862)"><g><path d="M 4.03125 0 L 3.4375 0 L 1.046875 -3.6875 L 1.03125 -3.6875 C 1.03125 -3.582031 1.035156 -3.46875 1.046875 -3.34375 C 1.054688 -3.21875 1.0625 -3.082031 1.0625 -2.9375 C 1.070312 -2.800781 1.078125 -2.660156 1.078125 -2.515625 L 1.078125 0 L 0.59375 0 L 0.59375 -4.390625 L 1.1875 -4.390625 L 3.5625 -0.71875 L 3.59375 -0.71875 C 3.582031 -0.78125 3.570312 -0.875 3.5625 -1 C 3.5625 -1.132812 3.554688 -1.273438 3.546875 -1.421875 C 3.546875 -1.578125 3.546875 -1.71875 3.546875 -1.84375 L 3.546875 -4.390625 L 4.03125 -4.390625 Z M 4.03125 0 "/></g></g></g><g fill="#ffffff" fill-opacity="1"><g transform="translate(168.309132, 7.427862)"><g><path d="M 0.59375 0 L 0.59375 -4.390625 L 1.109375 -4.390625 L 1.109375 -0.453125 L 3.0625 -0.453125 L 3.0625 0 Z M 0.59375 0 "/></g></g></g><g fill="#ffffff" fill-opacity="1"><g transform="translate(176.426558, 7.427862)"><g><path d="M 0.59375 0 L 0.59375 -4.390625 L 1.109375 -4.390625 L 1.109375 0 Z M 0.59375 0 "/></g></g></g><g fill="#ffffff" fill-opacity="1"><g transform="translate(183.053873, 7.427862)"><g><path d="M 4.03125 0 L 3.4375 0 L 1.046875 -3.6875 L 1.03125 -3.6875 C 1.03125 -3.582031 1.035156 -3.46875 1.046875 -3.34375 C 1.054688 -3.21875 1.0625 -3.082031 1.0625 -2.9375 C 1.070312 -2.800781 1.078125 -2.660156 1.078125 -2.515625 L 1.078125 0 L 0.59375 0 L 0.59375 -4.390625 L 1.1875 -4.390625 L 3.5625 -0.71875 L 3.59375 -0.71875 C 3.582031 -0.78125 3.570312 -0.875 3.5625 -1 C 3.5625 -1.132812 3.554688 -1.273438 3.546875 -1.421875 C 3.546875 -1.578125 3.546875 -1.71875 3.546875 -1.84375 L 3.546875 -4.390625 L 4.03125 -4.390625 Z M 4.03125 0 "/></g></g></g><g fill="#ffffff" fill-opacity="1"><g transform="translate(192.589482, 7.427862)"><g><path d="M 3.046875 0 L 0.59375 0 L 0.59375 -4.390625 L 3.046875 -4.390625 L 3.046875 -3.9375 L 1.109375 -3.9375 L 1.109375 -2.515625 L 2.921875 -2.515625 L 2.921875 -2.078125 L 1.109375 -2.078125 L 1.109375 -0.453125 L 3.046875 -0.453125 Z M 3.046875 0 "/></g></g></g></g></g></svg>